<svg xmlns="http://www.w3.org/2000/svg" viewBox="0 0 1080 608" width="1080" height="608">
  <!-- Background with subtle gradient feel -->
  <rect width="1080" height="608" fill="#18181B"/>

  <!-- Decorative topographic lines (right side) -->
  <g opacity="0.07" stroke="#F97316" stroke-width="1.5" fill="none">
    <path d="M700 0 Q800 150 900 100 Q1000 50 1080 150"/>
    <path d="M700 80 Q820 200 920 160 Q1020 120 1080 220"/>
    <path d="M700 160 Q840 280 940 230 Q1040 180 1080 300"/>
    <path d="M700 240 Q860 350 960 310 Q1060 270 1080 380"/>
    <path d="M700 320 Q860 440 980 390 Q1040 360 1080 460"/>
    <path d="M700 400 Q860 520 1000 480 Q1040 460 1080 540"/>
    <path d="M700 480 Q860 600 1000 560 Q1040 545 1080 608"/>
    <path d="M800 0 Q880 100 960 70 Q1030 40 1080 80"/>
    <path d="M850 0 Q920 80 1000 50 Q1050 25 1080 40"/>
  </g>

  <!-- Left accent line -->
  <rect x="80" y="180" width="6" height="250" fill="#F97316" rx="3"/>

  <!-- Main logo text -->
  <text
    x="112"
    y="290"
    font-family="Arial Black, Arial, sans-serif"
    font-weight="900"
    font-size="120"
    fill="#FFFFFF"
    letter-spacing="-3"
  >COPPER BAY</text>

  <!-- TECH in orange -->
  <text
    x="112"
    y="400"
    font-family="Arial Black, Arial, sans-serif"
    font-weight="900"
    font-size="120"
    fill="#F97316"
    letter-spacing="-3"
  >TECH</text>

  <!-- Divider dot -->
  <circle cx="430" cy="415" fill="#FFFFFF" opacity="0.2" r="5"/>

  <!-- Tagline -->
  <text
    x="112"
    y="455"
    font-family="Arial, sans-serif"
    font-weight="400"
    font-size="26"
    fill="#FFFFFF"
    opacity="0.35"
    letter-spacing="6"
  >IT CONSULTING · WEB DEVELOPMENT · CYBERSECURITY</text>
</svg>
